<svg version="1.1" xmlns="http://www.w3.org/2000/svg" xmlns:xlink="http://www.w3.org/1999/xlink" width="800px" height="800px" viewBox="0,0,256,256"><g fill="#4337f4" fill-rule="evenodd" stroke="none" stroke-width="1" stroke-linecap="butt" stroke-linejoin="miter" stroke-miterlimit="10" stroke-dasharray="" stroke-dashoffset="0" font-family="none" font-weight="none" font-size="none" text-anchor="none" style="mix-blend-mode: normal"><g transform="scale(8,8)"><g id="Page-1"><g transform="translate(-412,-983)" id="Icon-Set"><path d="M434,998h-10.586l4.121,-4.121c0.391,-0.391 0.391,-1.024 0,-1.414c-0.39,-0.391 -1.023,-0.391 -1.414,0l-5.656,5.656c-0.24,0.24 -0.315,0.568 -0.26,0.879c-0.055,0.311 0.02,0.639 0.26,0.879l5.656,5.661c0.391,0.39 1.024,0.39 1.414,0c0.391,-0.39 0.391,-1.03 0,-1.42l-4.121,-4.12h10.586c0.553,0 1,-0.447 1,-1c0,-0.552 -0.447,-1 -1,-1zM442,1011c0,1.1 -0.896,2 -2,2h-24c-1.104,0 -2,-0.9 -2,-2v-24c0,-1.104 0.896,-2 2,-2h24c1.104,0 2,0.896 2,2v24zM440,983h-24c-2.209,0 -4,1.791 -4,4v24c0,2.21 1.791,4 4,4h24c2.209,0 4,-1.79 4,-4v-24c0,-2.209 -1.791,-4 -4,-4z" id="arrow-left-square"></path></g></g></g></g></svg>